<svg width="19" height="19" viewBox="0 0 19 19" fill="none" xmlns="http://www.w3.org/2000/svg">
<g clip-path="url(#clip0_8281_17253)">
<path d="M14.2025 14.2025C12.8492 15.234 11.2014 15.8055 9.50002 15.8333C3.95835 15.8333 0.791687 9.5 0.791687 9.5C1.77643 7.66484 3.14225 6.06148 4.79752 4.7975M7.83752 3.35667C8.38245 3.22911 8.94036 3.16535 9.50002 3.16667C15.0417 3.16667 18.2084 9.5 18.2084 9.5C17.7278 10.399 17.1547 11.2454 16.4984 12.0254M11.1784 11.1783C10.9609 11.4117 10.6987 11.5988 10.4074 11.7286C10.1161 11.8584 9.80157 11.9282 9.48267 11.9339C9.16378 11.9395 8.84702 11.8808 8.55129 11.7614C8.25557 11.6419 7.98692 11.4641 7.7614 11.2386C7.53587 11.0131 7.35808 10.7445 7.23863 10.4487C7.11918 10.153 7.06052 9.83624 7.06615 9.51735C7.07177 9.19845 7.14157 8.88396 7.27138 8.59263C7.40119 8.3013 7.58835 8.0391 7.82169 7.82167" stroke="#A3A3A3" stroke-width="1.5" stroke-linecap="round" stroke-linejoin="round"/>
<path d="M0.791687 0.791664L18.2084 18.2083" stroke="#A3A3A3" stroke-width="1.5" stroke-linecap="round" stroke-linejoin="round"/>
</g>
<defs>
<clipPath id="clip0_8281_17253">
<rect width="19" height="19" fill="white"/>
</clipPath>
</defs>
</svg>
