<svg width="15" height="15" viewBox="0 0 15 15" fill="none" xmlns="http://www.w3.org/2000/svg">
<path d="M13.903 14.567C13.8151 14.5666 13.7283 14.5487 13.6474 14.5144C13.5665 14.48 13.4933 14.4299 13.432 14.367L10.983 11.918C9.72189 12.9379 8.11757 13.435 6.50075 13.307C4.88393 13.1789 3.37786 12.4355 2.29301 11.2298C1.20815 10.0242 0.627203 8.44824 0.669924 6.82693C0.712645 5.20561 1.37578 3.66247 2.52262 2.51563C3.66946 1.36879 5.2126 0.705656 6.83391 0.662936C8.45523 0.620215 10.0311 1.20116 11.2368 2.28602C12.4424 3.37087 13.1859 4.87695 13.314 6.49376C13.442 8.11058 12.9449 9.7149 11.925 10.976L14.374 13.425C14.4672 13.5182 14.5306 13.6368 14.5563 13.766C14.582 13.8952 14.5688 14.0292 14.5184 14.1509C14.468 14.2726 14.3826 14.3766 14.2731 14.4498C14.1635 14.523 14.0347 14.562 13.903 14.562V14.567ZM7 2.00001C6.01109 2.00001 5.04439 2.29325 4.22214 2.84266C3.3999 3.39207 2.75904 4.17296 2.3806 5.08659C2.00216 6.00022 1.90314 7.00555 2.09607 7.97546C2.289 8.94536 2.7652 9.83628 3.46446 10.5355C4.16372 11.2348 5.05464 11.711 6.02454 11.9039C6.99445 12.0969 7.99978 11.9978 8.91341 11.6194C9.82704 11.241 10.6079 10.6001 11.1573 9.77786C11.7068 8.95561 12 7.98891 12 7.00001C11.9984 5.67441 11.4711 4.40356 10.5338 3.46623C9.59644 2.52889 8.32559 2.0016 7 2.00001Z" fill="#B8B8D2"/>
</svg>
